# xmcd CD database file
# Copyright (C) 1997 Ti Kan
# 
# Track frame offsets:
#     150
#     14885
#     37830
#     50272
#     64890
#     95240
#     113400
#     126560
#     147642
#     160410
# 
# Disc length: 2501 seconds
# 
# Revision: 1
# Processed by: cddbd v1.4b41PL1 Copyright (c) Steve Scherf et al.
# Submitted via: DiscPlay 4.0.1
# 
DISCID=9409c30a
DTITLE=Sonny Terry Brownie McGhee - Po' Boys
DYEAR=1900
DGENRE=
TTITLE0=Down By The Riverside
TTITLE1=Drinking In The Blues
TTITLE2=Po' Boys
TTITLE3=Trouble In Mind
TTITLE4=Everybody's Blue
TTITLE5=I'm A Stranger Here
TTITLE6=Walk On
TTITLE7=Blues For The Lowlands
TTITLE8=Right On That Shore
TTITLE9=Blownin' In Fuses
EXTD=
EXTT0=
EXTT1=
EXTT2=
EXTT3=
EXTT4=
EXTT5=
EXTT6=
EXTT7=
EXTT8=
EXTT9=
PLAYORDER=
